<?xml version="1.0" encoding="UTF-8" standalone="no"?> <svg xmlns:inkscape="http://www.inkscape.org/namespaces/inkscape" xmlns:sodipodi="http://sodipodi.sourceforge.net/DTD/sodipodi-0.dtd" xmlns="http://www.w3.org/2000/svg" xmlns:svg="http://www.w3.org/2000/svg" version="1.1" id="svg2" width="682.66669" height="570.40802" viewBox="0 0 682.66669 570.40802" sodipodi:docname="Apple Empire W SVG.ai"><defs id="defs6"><clipPath id="clipPath16"><path d="M 0,427.806 H 512 V 0 H 0 Z" id="path14"></path></clipPath></defs><g id="g8" inkscape:groupmode="layer" inkscape:label="Apple Empire W SVG" transform="matrix(1.3333333,0,0,-1.3333333,0,570.408)"><g id="g10"><g id="g12" clip-path="url(#clipPath16)"><g id="g18" transform="translate(249.5496,202.848)"><path d="M 0,0 C 0,0 -5.186,71.776 72.393,85.476 72.393,85.476 74.18,6.45 0,0 m 262.41,132.798 c -0.016,0.378 -0.064,0.749 -0.121,1.12 -0.411,2.734 -1.637,5.193 -3.419,7.144 -2.892,3.182 -7.276,4.993 -12.049,4.344 -5.896,-0.801 -10.683,-5.469 -11.609,-11.347 -0.848,-5.384 1.442,-10.296 5.323,-13.203 -24.326,-21.988 -56.578,-35.38 -91.95,-35.38 -66.746,0 -122.348,47.668 -134.636,110.81 4.669,2.62 7.821,7.619 7.821,13.352 0,6.716 -4.33,12.425 -10.345,14.489 -1.556,0.54 -3.233,0.831 -4.975,0.831 -0.459,0 -0.919,-0.025 -1.37,-0.065 -2.871,-0.25 -5.515,-1.298 -7.709,-2.919 -3.217,-2.37 -5.474,-5.974 -6.079,-10.111 0.105,-1.854 0.177,-3.717 0.218,-5.587 0.661,-2.976 2.193,-5.628 4.321,-7.668 2.387,-2.314 5.54,-3.846 9.039,-4.209 -5.362,-62.561 -40.815,-116.527 -91.813,-147.368 40.605,29.713 69.067,75.035 76.55,127.138 -18.44,-51.37 -67.576,-88.113 -125.291,-88.113 -35.09,0 -67.012,13.578 -90.789,35.776 2.966,2.778 4.698,6.862 4.274,11.332 -0.637,6.726 -6.273,12.064 -13.023,12.359 -3.523,0.155 -6.754,-1.011 -9.256,-3.05 -0.258,-0.21 -0.508,-0.427 -0.742,-0.653 -2.096,-1.959 -3.572,-4.572 -4.104,-7.507 -0.145,-0.806 -0.226,-1.636 -0.226,-2.483 0,-7.571 6.136,-13.707 13.707,-13.707 2.008,0 3.919,0.435 5.636,1.217 4,-3.563 7.846,-7.289 11.539,-11.175 6.918,-10.28 13.175,-21.036 18.714,-32.212 8.821,-17.795 15.819,-36.646 20.754,-56.328 0.685,-2.693 1.322,-5.402 1.919,-8.127 4.306,-19.601 6.571,-39.96 6.571,-60.86 0,-6.498 -0.217,-12.949 -0.653,-19.335 3.475,14.433 5.322,29.511 5.322,45.016 0,12.401 -1.178,24.52 -3.427,36.259 -0.484,2.516 -1.016,5.024 -1.596,7.499 -1.121,4.781 -2.411,9.49 -3.887,14.118 1.992,-4.572 3.822,-9.24 5.451,-13.989 0.838,-2.395 1.62,-4.806 2.346,-7.241 5.281,-17.513 8.12,-36.09 8.12,-55.328 0,-6.2 -0.299,-12.328 -0.879,-18.375 24.809,31.123 63.052,51.07 105.947,51.07 15.296,0 29.995,-2.531 43.71,-7.208 h 0.008 c 1.863,-0.637 3.701,-1.306 5.523,-2.024 0.895,-0.349 1.785,-0.707 2.67,-1.075 3.289,-1.365 6.996,-1.378 10.227,0.121 17.308,8.033 36.604,12.517 56.945,12.517 38.613,0 73.453,-16.159 98.118,-42.081 0,-0.008 0,-0.008 0.008,-0.016 1.661,-1.734 3.25,-3.5 4.806,-5.322 6.184,-7.216 11.619,-15.102 16.19,-23.519 -1.572,10.973 -2.378,22.181 -2.378,33.582 0,57.037 20.246,109.334 53.933,150.117 C 205.977,81.783 183.36,49.45 171.79,12.248 c 10.281,43.596 35.453,81.436 69.866,107.85 1.645,-1 3.515,-1.661 5.523,-1.878 1.101,-0.138 2.203,-0.129 3.458,0.027 6.832,0.852 11.863,6.824 11.813,13.708 -0.002,0.281 -0.012,0.562 -0.04,0.843" style="fill:#ff4c06;fill-opacity:1;fill-rule:nonzero;stroke:none" id="path20"></path></g><g id="g22" transform="translate(209.8721,135.89)"><path d="m 0,0 c 1.329,0 2.588,0.344 3.78,1.031 1.191,0.688 2.054,1.58 2.588,2.681 V 8.797 H 3.046 c -5.192,0 -7.788,-1.52 -7.788,-4.559 C -4.742,2.91 -4.3,1.87 -3.414,1.123 -2.528,0.374 -1.39,0 0,0 m 7.033,-3.23 c -0.244,0.489 -0.443,1.36 -0.596,2.612 -1.97,-2.047 -4.322,-3.07 -7.055,-3.07 -2.445,0 -4.449,0.691 -6.014,2.073 -1.566,1.382 -2.348,3.135 -2.348,5.258 0,2.581 0.981,4.585 2.943,6.014 1.962,1.427 4.723,2.141 8.282,2.141 h 4.123 v 1.948 c 0,1.48 -0.443,2.661 -1.328,3.539 -0.886,0.879 -2.192,1.317 -3.918,1.317 -1.511,0 -2.78,-0.381 -3.803,-1.145 -1.023,-0.763 -1.534,-1.687 -1.534,-2.772 h -4.261 c 0,1.238 0.438,2.432 1.317,3.586 0.878,1.152 2.069,2.065 3.573,2.737 1.505,0.671 3.158,1.008 4.96,1.008 2.856,0 5.094,-0.714 6.713,-2.142 1.618,-1.428 2.459,-3.395 2.52,-5.899 V 2.565 c 0,-2.274 0.29,-4.085 0.87,-5.429 V -3.23 Z" style="fill:#ff4c06;fill-opacity:1;fill-rule:nonzero;stroke:none" id="path24"></path></g><g id="g26" transform="translate(243.8236,145.2605)"><path d="m 0,0 c 0,2.795 -0.596,5.001 -1.787,6.62 -1.191,1.62 -2.826,2.428 -4.903,2.428 -2.565,0 -4.49,-1.137 -5.773,-3.413 V -6.208 c 1.268,-2.262 3.208,-3.391 5.819,-3.391 2.031,0 3.646,0.805 4.846,2.417 C -0.599,-5.571 0,-3.177 0,0 m 4.238,-0.482 c 0,-3.772 -0.863,-6.811 -2.589,-9.117 -1.726,-2.307 -4.063,-3.46 -7.01,-3.46 -3.009,0 -5.376,0.954 -7.102,2.864 v -11.936 h -4.238 v 34.318 h 3.872 l 0.206,-2.749 c 1.726,2.138 4.124,3.207 7.193,3.207 2.978,0 5.334,-1.121 7.068,-3.368 1.733,-2.244 2.6,-5.367 2.6,-9.369 z" style="fill:#ff4c06;fill-opacity:1;fill-rule:nonzero;stroke:none" id="path28"></path></g><g id="g30" transform="translate(270.1463,145.2605)"><path d="m 0,0 c 0,2.795 -0.596,5.001 -1.787,6.62 -1.191,1.62 -2.826,2.428 -4.903,2.428 -2.565,0 -4.491,-1.137 -5.773,-3.413 V -6.208 c 1.268,-2.262 3.208,-3.391 5.819,-3.391 2.031,0 3.647,0.805 4.846,2.417 C -0.599,-5.571 0,-3.177 0,0 m 4.238,-0.482 c 0,-3.772 -0.864,-6.811 -2.589,-9.117 -1.726,-2.307 -4.063,-3.46 -7.01,-3.46 -3.009,0 -5.376,0.954 -7.102,2.864 v -11.936 h -4.238 v 34.318 h 3.872 l 0.206,-2.749 c 1.725,2.138 4.123,3.207 7.194,3.207 2.977,0 5.333,-1.121 7.066,-3.368 C 3.37,7.033 4.238,3.91 4.238,-0.092 Z" style="fill:#ff4c06;fill-opacity:1;fill-rule:nonzero;stroke:none" id="path32"></path></g><path d="m 284.373,132.66 h -4.238 v 35.188 h 4.238 z" style="fill:#ff4c06;fill-opacity:1;fill-rule:nonzero;stroke:none" id="path34"></path><g id="g36" transform="translate(300.9146,154.4241)"><path d="M 0,0 C -1.711,0 -3.147,-0.623 -4.308,-1.868 -5.469,-3.113 -6.186,-4.857 -6.461,-7.102 H 5.956 v 0.321 C 5.834,-4.628 5.253,-2.959 4.215,-1.776 3.175,-0.593 1.771,0 0,0 m 0.526,-22.223 c -3.36,0 -6.094,1.104 -8.201,3.311 -2.108,2.206 -3.161,5.158 -3.161,8.854 v 0.779 c 0,2.46 0.47,4.655 1.408,6.587 0.94,1.932 2.253,3.443 3.941,4.536 1.687,1.092 3.516,1.638 5.487,1.638 3.221,0 5.726,-1.062 7.513,-3.185 1.788,-2.123 2.681,-5.162 2.681,-9.118 v -1.763 H -6.598 c 0.06,-2.443 0.775,-4.419 2.141,-5.923 1.367,-1.503 3.105,-2.256 5.212,-2.256 1.498,0 2.765,0.305 3.804,0.916 1.038,0.611 1.946,1.42 2.725,2.429 l 2.589,-2.017 c -2.077,-3.192 -5.192,-4.788 -9.347,-4.788" style="fill:#ff4c06;fill-opacity:1;fill-rule:nonzero;stroke:none" id="path38"></path></g><g id="g40" transform="translate(51.2654,78.8613)"><path d="m 0,0 c -1.635,-1.755 -3.12,-3.804 -4.012,-6.144 h 34.921 c -0.891,2.34 -2.378,4.389 -4.161,6.291 C 23.182,3.512 18.427,5.414 13.374,5.414 8.322,5.414 3.567,3.512 0,0 m 51.713,-20.045 -55.874,0.147 c 1.041,-2.927 2.08,-4.243 4.31,-6.437 3.715,-3.512 8.47,-5.414 13.374,-5.414 5.052,0.147 9.808,2.049 13.374,5.561 0.149,0.145 0.446,0.438 0.595,0.585 L 46.81,-31.602 C 38.785,-43.746 30.315,-50.623 13.671,-50.77 c -21.101,-0.146 -38.339,16.68 -38.487,37.456 -0.149,20.776 16.94,37.749 38.042,37.895 21.101,0.145 38.339,-16.679 38.487,-37.455 0,-1.025 0.149,-6.146 0,-7.171" style="fill:#ffffff;fill-opacity:1;fill-rule:nonzero;stroke:none" id="path42"></path></g><g id="g44" transform="translate(238.2072,67.449)"><path d="m 0,0 v -39.357 h -19.318 v 37.602 0.438 c -0.149,4.829 -3.418,18.436 -17.535,18.436 -15.157,0 -17.238,-13.754 -17.238,-18.728 v -0.146 -37.602 h -0.149 -19.318 v 37.602 0.438 c 0,4.829 -3.417,18.436 -17.386,18.436 -15.305,0 -17.386,-13.754 -17.386,-18.728 v -0.146 -37.602 h -20.804 v 75.642 h 20.804 v -7.9 c 5.795,6.145 11.888,7.754 18.723,7.754 10.997,0.146 20.805,-4.827 27.195,-12.729 l 6.241,5.706 c 6.984,5.561 13.968,7.023 20.655,7.023 C -15.751,36.285 0,23.996 0,0" style="fill:#ffffff;fill-opacity:1;fill-rule:nonzero;stroke:none" id="path46"></path></g><g id="g48" transform="translate(305.9722,65.8403)"><path d="m 0,0 c 0,4.974 -1.932,9.656 -5.499,13.168 -3.566,3.365 -8.322,5.267 -13.374,5.267 -5.052,0 -9.808,-1.902 -13.373,-5.414 -3.567,-3.657 -5.499,-8.192 -5.499,-13.168 0.148,-4.975 2.08,-9.657 5.647,-13.167 3.567,-3.512 8.322,-5.414 13.374,-5.414 5.053,0.147 9.808,2.049 13.375,5.56 C -1.784,-9.657 0.148,-4.975 0,0 m 19.466,0.147 c 0.149,-20.777 -16.94,-37.749 -38.042,-37.896 -7.132,0 -14.563,2.049 -19.466,8.047 V -65.84 H -58.846 V 37.456 h 20.804 v -7.901 c 4.012,5.12 12.037,7.901 19.021,8.047 C 2.08,37.747 19.318,20.923 19.466,0.147" style="fill:#ffffff;fill-opacity:1;fill-rule:nonzero;stroke:none" id="path50"></path></g><path d="m 353.08,28.092 h -20.804 v 75.204 h 20.804 z m -0.148,84.714 h -20.656 v 17.264 h 20.656 z" style="fill:#ffffff;fill-opacity:1;fill-rule:nonzero;stroke:none" id="path52"></path><g id="g54" transform="translate(408.6581,104.7592)"><path d="m 0,0 v -20.923 c -16.05,0 -25.857,-12.729 -25.857,-22.386 v -33.359 h -20.804 v 33.359 41.992 h 20.804 V -12.584 C -22.438,-3.22 -15.455,0 0,0" style="fill:#ffffff;fill-opacity:1;fill-rule:nonzero;stroke:none" id="path56"></path></g><g id="g58" transform="translate(433.7733,78.8613)"><path d="m 0,0 c -1.635,-1.755 -3.122,-3.804 -4.013,-6.144 h 34.921 c -0.891,2.34 -2.377,4.389 -4.161,6.291 C 23.181,3.512 18.425,5.414 13.373,5.414 8.321,5.414 3.565,3.512 0,0 m 51.712,-20.045 -55.873,0.147 c 1.039,-2.927 2.08,-4.243 4.309,-6.437 3.715,-3.512 8.47,-5.414 13.374,-5.414 5.053,0.147 9.808,2.049 13.375,5.561 0.147,0.145 0.445,0.438 0.594,0.585 l 19.318,-5.999 C 38.784,-43.746 30.314,-50.623 13.67,-50.77 c -21.101,-0.146 -38.339,16.68 -38.487,37.456 -0.149,20.776 16.94,37.749 38.042,37.895 21.101,0.145 38.339,-16.679 38.487,-37.455 0,-1.025 0.149,-6.146 0,-7.171" style="fill:#ffffff;fill-opacity:1;fill-rule:nonzero;stroke:none" id="path60"></path></g></g></g></g></svg> 